<svg width="17" height="17" viewBox="0 0 17 17" fill="none" xmlns="http://www.w3.org/2000/svg">
<path d="M1.98145 1.98216C1.89677 2.06682 1.84529 2.17906 1.83635 2.29847C1.82742 2.41787 1.86164 2.53652 1.93278 2.63283L1.98145 2.68883L4.67078 5.37883C3.35947 6.29792 2.42337 7.65886 2.03412 9.21216C2.0041 9.34003 2.02561 9.47458 2.09399 9.58672C2.16236 9.69886 2.27212 9.7796 2.39954 9.81147C2.52696 9.84335 2.6618 9.82381 2.77493 9.75707C2.88806 9.69034 2.97038 9.58177 3.00412 9.45483C3.35005 8.07617 4.20205 6.87813 5.39078 6.09883L6.59745 7.3055C6.11545 7.80916 5.84984 8.48155 5.85753 9.17865C5.86522 9.87574 6.14559 10.5421 6.63859 11.035C7.13158 11.5279 7.798 11.8082 8.4951 11.8157C9.1922 11.8233 9.86454 11.5576 10.3681 11.0755L14.3141 15.0222C14.4033 15.1116 14.5231 15.164 14.6494 15.1687C14.7756 15.1735 14.899 15.1303 14.9947 15.0478C15.0904 14.9652 15.1513 14.8496 15.1651 14.724C15.179 14.5984 15.1448 14.4722 15.0694 14.3708L15.0208 14.3148L10.9454 10.2388L10.9461 10.2375L6.31278 5.60683L6.31412 5.6055L5.55878 4.85216L2.68812 1.98216C2.59437 1.88853 2.46728 1.83594 2.33478 1.83594C2.20228 1.83594 2.0752 1.88853 1.98145 1.98216ZM8.50145 4.16883C7.83478 4.16883 7.18812 4.2675 6.57545 4.45216L7.40012 5.27616C8.82648 4.99374 10.3068 5.27022 11.5351 6.04845C12.7634 6.82668 13.6456 8.04714 13.9994 9.4575C14.034 9.58345 14.1164 9.69089 14.2292 9.75684C14.3419 9.82279 14.476 9.84201 14.6027 9.8104C14.7294 9.77878 14.8387 9.69884 14.9073 9.58767C14.9758 9.47649 14.9981 9.34292 14.9694 9.2155C14.6079 7.7738 13.7751 6.4942 12.6033 5.57988C11.4315 4.66556 9.98778 4.16892 8.50145 4.16883ZM8.63145 6.50883L11.1654 9.04216C11.1327 8.38076 10.8552 7.75517 10.3868 7.28698C9.91852 6.81879 9.29286 6.54144 8.63145 6.50883Z" fill="#999999"/>
</svg>
