<svg width="17" height="17" viewBox="0 0 17 17" fill="none" xmlns="http://www.w3.org/2000/svg">
<path d="M2.50098 9.16406C4.90098 3.83073 12.101 3.83073 14.501 9.16406" stroke="#282C3E" stroke-width="1.5" stroke-linecap="round" stroke-linejoin="round"/>
<path d="M8.50098 11.8281C8.23833 11.8281 7.97826 11.7764 7.73561 11.6759C7.49296 11.5754 7.27248 11.4281 7.08676 11.2423C6.90105 11.0566 6.75373 10.8361 6.65322 10.5935C6.55271 10.3508 6.50098 10.0908 6.50098 9.82812C6.50098 9.56548 6.55271 9.30541 6.65322 9.06276C6.75373 8.82011 6.90105 8.59963 7.08676 8.41391C7.27248 8.22819 7.49296 8.08088 7.73561 7.98037C7.97826 7.87986 8.23833 7.82812 8.50098 7.82812C9.03141 7.82813 9.54012 8.03884 9.91519 8.41391C10.2903 8.78898 10.501 9.29769 10.501 9.82812C10.501 10.3586 10.2903 10.8673 9.91519 11.2423C9.54012 11.6174 9.03141 11.8281 8.50098 11.8281Z" fill="#282C3E" stroke="#282C3E" stroke-width="1.5" stroke-linecap="round" stroke-linejoin="round"/>
</svg>
